<svg width="48" height="48" viewBox="0 0 48 48" fill="none" xmlns="http://www.w3.org/2000/svg">
<path d="M24 47.9999C20.3714 48.0101 16.7886 47.1891 13.5265 45.5998C12.3326 45.0191 11.1888 44.3408 10.1065 43.5718L9.77774 43.3318C6.80134 41.1349 4.36789 38.2852 2.66421 35.0015C0.901997 31.6028 -0.0119824 27.8283 0.000118614 23.9999C0.000118614 10.7451 10.7453 0 24 0C37.2547 0 47.9999 10.7451 47.9999 23.9999C48.0119 27.8264 47.0987 31.5992 45.3382 34.9967C43.6369 38.2785 41.2068 41.1272 38.2343 43.3246C37.1129 44.1454 35.9229 44.8681 34.6775 45.4846L34.4855 45.5806C31.2213 47.1783 27.6342 48.0059 24 47.9999ZM24 35.9998C20.4036 35.9928 17.1065 38.0015 15.4633 41.2006C20.8426 43.8651 27.1574 43.8651 32.5367 41.2006V41.1886C30.8915 37.993 27.5942 35.9889 24 35.9998ZM24 31.1999C29.1986 31.2067 33.9921 34.0081 36.5495 38.5342L36.5855 38.503L36.6191 38.4743L36.5783 38.5102L36.5543 38.5294C42.6238 33.2857 44.7941 24.8215 41.9966 17.3042C39.1991 9.78687 32.0233 4.80074 24.0024 4.80074C15.9815 4.80074 8.80574 9.78687 6.00822 17.3042C3.21071 24.8215 5.38099 33.2857 11.4505 38.5294C14.0095 34.0056 18.8025 31.2062 24 31.1999ZM24 28.7999C18.6981 28.7999 14.4001 24.5018 14.4001 19.1999C14.4001 13.898 18.6981 9.59996 24 9.59996C29.3019 9.59996 33.5999 13.898 33.5999 19.1999C33.5999 21.746 32.5885 24.1878 30.7882 25.9881C28.9878 27.7885 26.5461 28.7999 24 28.7999ZM24 14.3999C21.3491 14.3999 19.2001 16.549 19.2001 19.1999C19.2001 21.8509 21.3491 23.9999 24 23.9999C26.6509 23.9999 28.8 21.8509 28.8 19.1999C28.8 16.549 26.6509 14.3999 24 14.3999Z" fill="#95FFB2"/>
</svg>
