<svg width="44" height="44" viewBox="0 0 44 44" fill="none" xmlns="http://www.w3.org/2000/svg">
<rect width="44" height="44" rx="22" fill="#FFCF2D"/>
<g clip-path="url(#clip0_51_6668)">
<path d="M22.5 20C21.9477 20 21.5 20.4477 21.5 21C21.5 21.5523 21.9477 22 22.5 22V20ZM26.1429 22C26.6951 22 27.1429 21.5523 27.1429 21C27.1429 20.4477 26.6951 20 26.1429 20V22ZM22.5 24.8889C21.9477 24.8889 21.5 25.3366 21.5 25.8889C21.5 26.4412 21.9477 26.8889 22.5 26.8889V24.8889ZM26.1429 26.8889C26.6951 26.8889 27.1429 26.4412 27.1429 25.8889C27.1429 25.3366 26.6951 24.8889 26.1429 24.8889V26.8889ZM18.8571 20C18.3049 20 17.8571 20.4477 17.8571 21C17.8571 21.5523 18.3049 22 18.8571 22V20ZM18.8693 22C19.4216 22 19.8693 21.5523 19.8693 21C19.8693 20.4477 19.4216 20 18.8693 20V22ZM18.8571 24.8889C18.3049 24.8889 17.8571 25.3366 17.8571 25.8889C17.8571 26.4412 18.3049 26.8889 18.8571 26.8889V24.8889ZM18.8693 26.8889C19.4216 26.8889 19.8693 26.4412 19.8693 25.8889C19.8693 25.3366 19.4216 24.8889 18.8693 24.8889V26.8889ZM30 14.8889V29.5556H32V14.8889H30ZM28.5714 31H16.4286V33H28.5714V31ZM15 29.5556V14.8889H13V29.5556H15ZM16.4286 13.4444H18.8571V11.4444H16.4286V13.4444ZM26.1429 13.4444H28.5714V11.4444H26.1429V13.4444ZM16.4286 31C15.6457 31 15 30.3595 15 29.5556H13C13 31.4517 14.5289 33 16.4286 33V31ZM30 29.5556C30 30.3595 29.3543 31 28.5714 31V33C30.4711 33 32 31.4517 32 29.5556H30ZM32 14.8889C32 12.9927 30.4711 11.4444 28.5714 11.4444V13.4444C29.3543 13.4444 30 14.085 30 14.8889H32ZM15 14.8889C15 14.085 15.6457 13.4444 16.4286 13.4444V11.4444C14.5289 11.4444 13 12.9927 13 14.8889H15ZM22.5 22H26.1429V20H22.5V22ZM22.5 26.8889H26.1429V24.8889H22.5V26.8889ZM21.2857 11H23.7143V9H21.2857V11ZM23.7143 13.8889H21.2857V15.8889H23.7143V13.8889ZM21.2857 13.8889C20.5029 13.8889 19.8571 13.2483 19.8571 12.4444H17.8571C17.8571 14.3406 19.386 15.8889 21.2857 15.8889V13.8889ZM25.1429 12.4444C25.1429 13.2483 24.4971 13.8889 23.7143 13.8889V15.8889C25.614 15.8889 27.1429 14.3406 27.1429 12.4444H25.1429ZM23.7143 11C24.4971 11 25.1429 11.6405 25.1429 12.4444H27.1429C27.1429 10.5483 25.614 9 23.7143 9V11ZM21.2857 9C19.386 9 17.8571 10.5483 17.8571 12.4444H19.8571C19.8571 11.6405 20.5029 11 21.2857 11V9ZM18.8571 22H18.8693V20H18.8571V22ZM18.8571 26.8889H18.8693V24.8889H18.8571V26.8889Z" fill="white"/>
</g>
<defs>
<clipPath id="clip0_51_6668">
<rect width="24" height="24" fill="white" transform="translate(10 10)"/>
</clipPath>
</defs>
</svg>
