<svg width="44" height="44" viewBox="0 0 44 44" fill="none" xmlns="http://www.w3.org/2000/svg">
<rect width="44" height="44" rx="22" fill="#FFCF2D"/>
<path d="M22 14.3542C22.7329 13.5238 23.8053 13 25 13C27.2091 13 29 14.7909 29 17C29 19.2091 27.2091 21 25 21C23.8053 21 22.7329 20.4762 22 19.6458M25 31H13V30C13 26.6863 15.6863 24 19 24C22.3137 24 25 26.6863 25 30V31ZM25 31H31V30C31 26.6863 28.3137 24 25 24C23.9071 24 22.8825 24.2922 22 24.8027M23 17C23 19.2091 21.2091 21 19 21C16.7909 21 15 19.2091 15 17C15 14.7909 16.7909 13 19 13C21.2091 13 23 14.7909 23 17Z" stroke="white" stroke-width="2" stroke-linecap="round" stroke-linejoin="round"/>
</svg>
