<svg width="44" height="44" viewBox="0 0 44 44" fill="none" xmlns="http://www.w3.org/2000/svg">
<rect width="44" height="44" rx="22" fill="#FFCF2D"/>
<path d="M27 18H29C30.1046 18 31 18.8954 31 20V26C31 27.1046 30.1046 28 29 28H27V32L23 28H19C18.4477 28 17.9477 27.7761 17.5858 27.4142M17.5858 27.4142L21 24H25C26.1046 24 27 23.1046 27 22V16C27 14.8954 26.1046 14 25 14H15C13.8954 14 13 14.8954 13 16V22C13 23.1046 13.8954 24 15 24H17V28L17.5858 27.4142Z" stroke="white" stroke-width="2" stroke-linecap="round" stroke-linejoin="round"/>
</svg>
