<svg width="98" height="35" viewBox="0 0 98 35" fill="none" xmlns="http://www.w3.org/2000/svg">
<path d="M17.312 26H23.104L14.976 3.536H8.64L0.512 26H6.24L7.584 22.032H15.968L17.312 26ZM14.56 17.808H9.024L11.776 9.584L14.56 17.808ZM28.2977 6.288C30.2178 6.288 31.5298 4.976 31.5298 3.344C31.5298 1.68 30.2178 0.367998 28.2977 0.367998C26.3458 0.367998 25.0338 1.68 25.0338 3.344C25.0338 4.976 26.3458 6.288 28.2977 6.288ZM25.5778 8.144V28.368C25.5778 29.424 25.1298 29.872 23.9138 29.872H22.6017V34.512H24.7458C28.4578 34.512 31.0498 32.944 31.0498 28.304V8.144H25.5778ZM33.896 17.04C33.896 22.672 37.384 26.256 41.736 26.256C44.392 26.256 46.28 25.04 47.272 23.472V26H52.744V8.144H47.272V10.672C46.312 9.104 44.424 7.888 41.768 7.888C37.384 7.888 33.896 11.408 33.896 17.04ZM47.272 17.072C47.272 19.92 45.448 21.488 43.368 21.488C41.32 21.488 39.464 19.888 39.464 17.04C39.464 14.192 41.32 12.656 43.368 12.656C45.448 12.656 47.272 14.224 47.272 17.072ZM62.1748 17.712C62.1748 14.64 63.6788 13.744 66.2708 13.744H67.7748V7.952C65.3748 7.952 63.4228 9.232 62.1748 11.12V8.144H56.7028V26H62.1748V17.712ZM70.3903 26H75.8623V8.144H70.3903V26ZM73.1423 6.288C75.0623 6.288 76.3743 4.976 76.3743 3.344C76.3743 1.68 75.0623 0.367998 73.1423 0.367998C71.1903 0.367998 69.8783 1.68 69.8783 3.344C69.8783 4.976 71.1903 6.288 73.1423 6.288ZM92.1478 26H97.5878V15.568C97.5878 10.768 94.8358 7.952 90.7078 7.952C88.3078 7.952 86.3878 9.008 85.2998 10.512V8.144H79.8278V26H85.2998V16.304C85.2998 13.872 86.6438 12.528 88.7238 12.528C90.8038 12.528 92.1478 13.872 92.1478 16.304V26Z" fill="#FCB43D"/>
</svg>
